<svg xmlns="http://www.w3.org/2000/svg" xmlns:xlink="http://www.w3.org/1999/xlink" viewBox="0 0 795.56 677.88"><defs><style>.cls-1,.cls-9{fill:none;}.cls-2{clip-path:url(#clip-path);}.cls-3{fill:#f5e348;}.cls-4{fill:#e71f1a;}.cls-5{fill:#fff;}.cls-6{fill:#003e26;}.cls-7{fill:#da1617;}.cls-8{font-size:54.27px;fill:#231815;font-family:HGGothicE;letter-spacing:0.2em;}.cls-9{stroke:#231815;stroke-linecap:round;stroke-linejoin:round;stroke-width:0.5px;}.cls-10{fill:#003d25;}</style><clipPath id="clip-path" transform="translate(-18.06 -12.08)"><rect class="cls-1" width="800" height="417.18"/></clipPath></defs><g id="レイヤー_2" data-name="レイヤー 2"><g id="レイヤー_5" data-name="レイヤー 5"><g class="cls-2"><path class="cls-3" d="M739.26,346.18H698.82c-1.59-17.74-11.31-34.44-14.58-51.39-3.69-19.06-.16-40.24-7.27-57.77-7.23-17.84-24.45-30.24-34.83-46.09-9.57-14.63-14.32-33.43-25.21-46.9l28.61-29.25C702.55,174.76,738,256.23,739.26,346.18Z" transform="translate(-18.06 -12.08)"/><path class="cls-3" d="M698.82,355.86h40.44c-1.23,89.95-36.71,171.42-93.72,231.4L616.93,558c10.89-13.47,15.64-32.27,25.21-46.89,10.38-15.86,27.6-28.26,34.83-46.1,7.11-17.53,3.58-38.71,7.27-57.77C687.51,390.3,697.23,373.6,698.82,355.86Z" transform="translate(-18.06 -12.08)"/><path class="cls-3" d="M678.63,346.18H419.26L602.65,158.63c9.91,12.56,14,30.21,22.78,43.71,9.66,14.74,26.18,26,32.9,42.57,6.61,16.3,2.77,36.17,6.2,53.88C667.56,314.45,677,329.82,678.63,346.18Zm-51.08-63c0-19.39-15.37-35.11-34.33-35.11s-34.33,15.72-34.33,35.11,15.37,35.11,34.33,35.11S627.55,302.61,627.55,283.22ZM488.71,315.4a14.89,14.89,0,1,0-14.88,15.22A15.06,15.06,0,0,0,488.71,315.4Z" transform="translate(-18.06 -12.08)"/><path class="cls-3" d="M419.26,355.86H678.63c-1.66,16.36-11.07,31.73-14.1,47.39-3.43,17.71.41,37.58-6.2,53.88-6.72,16.59-23.24,27.83-32.9,42.57-8.83,13.5-12.87,31.14-22.78,43.71Zm201.19,47.68c0-14.71-11.66-26.64-26-26.64s-26,11.93-26,26.64,11.66,26.63,26,26.63S620.45,418.25,620.45,403.54ZM512.13,398.7a14.21,14.21,0,1,0-14.21,14.53A14.37,14.37,0,0,0,512.13,398.7Z" transform="translate(-18.06 -12.08)"/><path class="cls-3" d="M638.84,107.93l-28.6,29.25c-13.17-11.14-31.56-16-45.86-25.78-15.51-10.61-27.63-28.22-45.07-35.61-17.14-7.27-37.86-3.67-56.49-7.43C446.24,65,429.91,55.07,412.56,53.44V12.08C500.52,13.35,580.19,49.63,638.84,107.93Z" transform="translate(-18.06 -12.08)"/><path class="cls-3" d="M610.24,564.86l28.6,29.25c-58.65,58.3-138.32,94.58-226.28,95.85V648.6c17.35-1.63,33.67-11.56,50.26-14.92,18.63-3.77,39.34-.16,56.49-7.43,17.44-7.39,29.56-25,45.07-35.61C578.68,580.84,597.07,576,610.24,564.86Z" transform="translate(-18.06 -12.08)"/><ellipse class="cls-4" cx="575.16" cy="271.14" rx="34.33" ry="35.11"/><path class="cls-5" d="M594.41,376.9c14.38,0,26,11.93,26,26.64s-11.66,26.63-26,26.63-26-11.92-26-26.63S580,376.9,594.41,376.9Z" transform="translate(-18.06 -12.08)"/><path class="cls-3" d="M596,151.78,412.56,339.33V74.09c16,1.7,31,11.32,46.34,14.42,17.32,3.5,36.75-.43,52.69,6.33,16.22,6.88,27.21,23.78,41.63,33.65C566.42,137.53,583.67,141.65,596,151.78ZM513.9,202.71c0-17.05-13.52-30.87-30.19-30.87s-30.19,13.82-30.19,30.87,13.52,30.87,30.19,30.87S513.9,219.76,513.9,202.71Zm-71.09,39.92a9.54,9.54,0,1,0-9.53,9.75A9.64,9.64,0,0,0,442.81,242.63Z" transform="translate(-18.06 -12.08)"/><path class="cls-3" d="M412.56,362.71,596,550.26c-12.29,10.13-29.54,14.25-42.74,23.29-14.42,9.87-25.41,26.77-41.63,33.65-15.94,6.76-35.37,2.83-52.69,6.33-15.31,3.1-30.34,12.72-46.34,14.42Zm112,156.45c0-17.72-14-32.08-31.37-32.08s-31.37,14.36-31.37,32.08,14,32.08,31.37,32.08S524.55,536.88,524.55,519.16Zm-67.33-49.89a12,12,0,1,0-12,12.24A12.11,12.11,0,0,0,457.22,469.27Z" transform="translate(-18.06 -12.08)"/><ellipse class="cls-6" cx="475.12" cy="507.08" rx="31.37" ry="32.08"/><ellipse class="cls-4" cx="465.65" cy="190.63" rx="30.19" ry="30.87"/><path class="cls-3" d="M473.83,300.17a15.23,15.23,0,1,1-14.89,15.23A15.06,15.06,0,0,1,473.83,300.17Z" transform="translate(-18.06 -12.08)"/><ellipse class="cls-3" cx="427.19" cy="457.19" rx="11.97" ry="12.24"/><path class="cls-3" d="M433.28,232.89a9.75,9.75,0,1,1-9.54,9.74A9.64,9.64,0,0,1,433.28,232.89Z" transform="translate(-18.06 -12.08)"/><path class="cls-3" d="M403.09,648.6V690c-88-1.27-167.63-37.55-226.28-95.85l28.61-29.25c13.17,11.14,31.55,16,45.85,25.78,15.51,10.61,27.63,28.22,45.07,35.61,17.15,7.27,37.86,3.66,56.5,7.43C369.42,637,385.74,647,403.09,648.6Z" transform="translate(-18.06 -12.08)"/><path class="cls-3" d="M403.09,362.71V628c-16-1.7-31-11.32-46.33-14.42-17.33-3.5-36.76.43-52.7-6.33-16.21-6.88-27.21-23.78-41.62-33.65-13.21-9-30.46-13.16-42.74-23.29Zm-6.4,94.1A17.76,17.76,0,1,0,378.93,475,18,18,0,0,0,396.69,456.81Zm-45.47,63.32c0-21.6-17.11-39.11-38.23-39.11s-38.24,17.51-38.24,39.11,17.12,39.1,38.24,39.1S351.22,541.72,351.22,520.13Z" transform="translate(-18.06 -12.08)"/><path class="cls-3" d="M403.09,74.09V339.33L219.7,151.78c12.28-10.13,29.53-14.26,42.74-23.29,14.41-9.87,25.41-26.77,41.62-33.65,15.94-6.76,35.37-2.83,52.7-6.33C372.07,85.41,387.09,75.79,403.09,74.09Zm-24.16,79.59c0-14.72-11.66-26.64-26-26.64S326.84,139,326.84,153.68s11.66,26.63,26.05,26.63S378.93,168.39,378.93,153.68Zm-10.46,57.84a10.75,10.75,0,1,0-10.75,11A10.88,10.88,0,0,0,368.47,211.52Z" transform="translate(-18.06 -12.08)"/><path class="cls-3" d="M403.09,12.08V53.44C385.74,55.07,369.42,65,352.84,68.36c-18.64,3.76-39.35.16-56.5,7.43-17.44,7.39-29.56,25-45.07,35.61-14.3,9.79-32.68,14.64-45.85,25.78l-28.61-29.25C235.46,49.63,315.13,13.35,403.09,12.08Z" transform="translate(-18.06 -12.08)"/><path class="cls-3" d="M270.8,217.74,396.39,346.18H137c1.66-16.36,11.07-31.73,14.09-47.39,3.43-17.71-.41-37.58,6.2-53.88,6.72-16.59,23.25-27.83,32.9-42.57,8.84-13.5,12.87-31.15,22.78-43.71l44.92,45.94a31.66,31.66,0,0,0-15.49-4c-17.85,0-32.32,14.8-32.32,33.05s14.47,33,32.32,33,32.32-14.8,32.32-33A33.47,33.47,0,0,0,270.8,217.74Zm62.31,70.32a14.21,14.21,0,1,0-14.2,14.53A14.37,14.37,0,0,0,333.11,288.06Z" transform="translate(-18.06 -12.08)"/><path class="cls-3" d="M396.39,355.86,213,543.41c-9.91-12.57-13.94-30.21-22.78-43.71-9.65-14.74-26.18-26-32.9-42.57-6.61-16.3-2.77-36.17-6.2-53.88-3-15.66-12.43-31-14.09-47.39h48.39a27.49,27.49,0,0,0-.17,2.88c0,14,11.13,25.43,24.86,25.43S235,372.78,235,358.74a27.49,27.49,0,0,0-.17-2.88Zm-65.64,21A17.76,17.76,0,1,0,313,395.06,18,18,0,0,0,330.75,376.9Z" transform="translate(-18.06 -12.08)"/><ellipse class="cls-3" cx="360.87" cy="444.73" rx="17.76" ry="18.16"/><path class="cls-4" d="M352.89,127c14.38,0,26,11.92,26,26.64s-11.66,26.63-26,26.63-26.05-11.92-26.05-26.63S338.5,127,352.89,127Z" transform="translate(-18.06 -12.08)"/><path class="cls-3" d="M357.72,200.53a11,11,0,1,1-10.75,11A10.88,10.88,0,0,1,357.72,200.53Z" transform="translate(-18.06 -12.08)"/><path class="cls-4" d="M313,481c21.12,0,38.23,17.51,38.23,39.11s-17.11,39.1-38.23,39.1-38.24-17.51-38.24-39.1S291.87,481,313,481Z" transform="translate(-18.06 -12.08)"/><path class="cls-3" d="M170.12,114.78,198.72,144c-10.89,13.47-15.63,32.27-25.21,46.89-10.38,15.86-27.59,28.26-34.83,46.1-7.1,17.53-3.58,38.71-7.26,57.77-3.28,16.95-13,33.65-14.59,51.39H76.39C77.62,256.23,113.11,174.76,170.12,114.78Z" transform="translate(-18.06 -12.08)"/><path class="cls-3" d="M198.72,558l-28.61,29.25c-57-60-92.49-141.45-93.72-231.4h40.44c1.6,17.74,11.31,34.44,14.59,51.39,3.68,19.06.16,40.24,7.26,57.77,7.24,17.84,24.45,30.24,34.83,46.09C183.09,525.74,187.83,544.54,198.72,558Z" transform="translate(-18.06 -12.08)"/><line class="cls-7" x1="8.94" y1="336.2" x2="759.94" y2="336.2"/><line class="cls-3" x1="228.62" y1="180.38" x2="262.19" y2="214.71"/><ellipse class="cls-3" cx="217.47" cy="224.86" rx="39.82" ry="41.23"/><circle class="cls-3" cx="300.84" cy="275.98" r="16.18"/><circle class="cls-3" cx="577.89" cy="412.33" r="25.31"/><circle class="cls-4" cx="220" cy="240.35" r="36.68"/><circle class="cls-6" cx="327.9" cy="225.65" r="15.21"/><rect class="cls-5" x="28.03" y="338.22" width="714" height="125.85"/><text class="cls-8" transform="translate(0 391.46) scale(1.61 1)">PIZZERIA yama</text><text x="-18.06" y="-12.08"/></g><path class="cls-9" d="M604.65,370.46a15.23,15.23,0,1,1,14.89-15.23A15.06,15.06,0,0,1,604.65,370.46Z" transform="translate(-18.06 -12.08)"/><circle class="cls-10" cx="281.08" cy="314.42" r="17.43"/><circle class="cls-6" cx="445.76" cy="111.81" r="20.12"/><circle class="cls-10" cx="508.76" cy="306.16" r="18.53"/></g></g></svg>